<svg width="184" height="85" viewBox="0 0 184 85" fill="none" xmlns="http://www.w3.org/2000/svg">
<path d="M24.5001 41.42C21.1201 41.42 18.5401 40.48 16.7601 38.6C15.0001 36.72 14.1201 34.05 14.1201 30.59C14.1201 28.87 14.3901 27.34 14.9301 26C15.4701 24.64 16.2101 23.5 17.1501 22.58C18.0901 21.64 19.2101 20.93 20.5101 20.45C21.8101 19.97 23.2201 19.73 24.7401 19.73C25.6201 19.73 26.4201 19.8 27.1401 19.94C27.8601 20.06 28.4901 20.21 29.0301 20.39C29.5701 20.55 30.0201 20.72 30.3801 20.9C30.7401 21.08 31.0001 21.22 31.1601 21.32L29.8101 25.1C29.1701 24.76 28.4201 24.47 27.5601 24.23C26.7201 23.99 25.7601 23.87 24.6801 23.87C23.9601 23.87 23.2501 23.99 22.5501 24.23C21.8701 24.47 21.2601 24.86 20.7201 25.4C20.2001 25.92 19.7801 26.6 19.4601 27.44C19.1401 28.28 18.9801 29.3 18.9801 30.5C18.9801 31.46 19.0801 32.36 19.2801 33.2C19.5001 34.02 19.8401 34.73 20.3001 35.33C20.7801 35.93 21.4001 36.41 22.1601 36.77C22.9201 37.11 23.8401 37.28 24.9201 37.28C25.6001 37.28 26.2101 37.24 26.7501 37.16C27.2901 37.08 27.7701 36.99 28.1901 36.89C28.6101 36.77 28.9801 36.64 29.3001 36.5C29.6201 36.36 29.9101 36.23 30.1701 36.11L31.4601 39.86C30.8001 40.26 29.8701 40.62 28.6701 40.94C27.4701 41.26 26.0801 41.42 24.5001 41.42ZM40.4962 37.88C40.9362 37.88 41.3562 37.87 41.7562 37.85C42.1562 37.83 42.4762 37.8 42.7162 37.76V34.37C42.5362 34.33 42.2662 34.29 41.9062 34.25C41.5462 34.21 41.2162 34.19 40.9162 34.19C40.4962 34.19 40.0962 34.22 39.7162 34.28C39.3562 34.32 39.0362 34.41 38.7562 34.55C38.4762 34.69 38.2562 34.88 38.0962 35.12C37.9362 35.36 37.8562 35.66 37.8562 36.02C37.8562 36.72 38.0862 37.21 38.5462 37.49C39.0262 37.75 39.6762 37.88 40.4962 37.88ZM40.1362 24.8C41.4562 24.8 42.5562 24.95 43.4362 25.25C44.3162 25.55 45.0162 25.98 45.5362 26.54C46.0762 27.1 46.4562 27.78 46.6762 28.58C46.8962 29.38 47.0062 30.27 47.0062 31.25V40.55C46.3662 40.69 45.4762 40.85 44.3362 41.03C43.1962 41.23 41.8162 41.33 40.1962 41.33C39.1762 41.33 38.2462 41.24 37.4062 41.06C36.5862 40.88 35.8762 40.59 35.2762 40.19C34.6762 39.77 34.2162 39.23 33.8962 38.57C33.5762 37.91 33.4162 37.1 33.4162 36.14C33.4162 35.22 33.5962 34.44 33.9562 33.8C34.3362 33.16 34.8362 32.65 35.4562 32.27C36.0762 31.89 36.7862 31.62 37.5862 31.46C38.3862 31.28 39.2162 31.19 40.0762 31.19C40.6562 31.19 41.1662 31.22 41.6062 31.28C42.0662 31.32 42.4362 31.38 42.7162 31.46V31.04C42.7162 30.28 42.4862 29.67 42.0262 29.21C41.5662 28.75 40.7662 28.52 39.6262 28.52C38.8662 28.52 38.1162 28.58 37.3762 28.7C36.6362 28.8 35.9962 28.95 35.4562 29.15L34.8862 25.55C35.1462 25.47 35.4662 25.39 35.8462 25.31C36.2462 25.21 36.6762 25.13 37.1362 25.07C37.5962 24.99 38.0762 24.93 38.5762 24.89C39.0962 24.83 39.6162 24.8 40.1362 24.8ZM60.5582 29.18C60.1582 29.08 59.6882 28.98 59.1482 28.88C58.6082 28.76 58.0282 28.7 57.4082 28.7C57.1282 28.7 56.7882 28.73 56.3882 28.79C56.0082 28.83 55.7182 28.88 55.5182 28.94V41H51.0482V26.06C51.8482 25.78 52.7882 25.52 53.8682 25.28C54.9682 25.02 56.1882 24.89 57.5282 24.89C57.7682 24.89 58.0582 24.91 58.3982 24.95C58.7382 24.97 59.0782 25.01 59.4182 25.07C59.7582 25.11 60.0982 25.17 60.4382 25.25C60.7782 25.31 61.0682 25.39 61.3082 25.49L60.5582 29.18ZM67.2215 32.99C67.2215 34.37 67.5315 35.48 68.1515 36.32C68.7715 37.16 69.6915 37.58 70.9115 37.58C71.3115 37.58 71.6815 37.57 72.0215 37.55C72.3615 37.51 72.6415 37.47 72.8615 37.43V29.3C72.5815 29.12 72.2115 28.97 71.7515 28.85C71.3115 28.73 70.8615 28.67 70.4015 28.67C68.2815 28.67 67.2215 30.11 67.2215 32.99ZM77.3315 40.49C76.9315 40.61 76.4715 40.73 75.9515 40.85C75.4315 40.95 74.8815 41.04 74.3015 41.12C73.7415 41.2 73.1615 41.26 72.5615 41.3C71.9815 41.36 71.4215 41.39 70.8815 41.39C69.5815 41.39 68.4215 41.2 67.4015 40.82C66.3815 40.44 65.5215 39.9 64.8215 39.2C64.1215 38.48 63.5815 37.62 63.2015 36.62C62.8415 35.6 62.6615 34.46 62.6615 33.2C62.6615 31.92 62.8215 30.77 63.1415 29.75C63.4615 28.71 63.9215 27.83 64.5215 27.11C65.1215 26.39 65.8515 25.84 66.7115 25.46C67.5915 25.08 68.5915 24.89 69.7115 24.89C70.3315 24.89 70.8815 24.95 71.3615 25.07C71.8615 25.19 72.3615 25.36 72.8615 25.58V18.44L77.3315 17.72V40.49ZM86.047 37.79C86.867 37.79 87.447 37.71 87.787 37.55C88.127 37.39 88.297 37.08 88.297 36.62C88.297 36.26 88.077 35.95 87.637 35.69C87.197 35.41 86.527 35.1 85.627 34.76C84.927 34.5 84.287 34.23 83.707 33.95C83.147 33.67 82.667 33.34 82.267 32.96C81.867 32.56 81.557 32.09 81.337 31.55C81.117 31.01 81.007 30.36 81.007 29.6C81.007 28.12 81.557 26.95 82.657 26.09C83.757 25.23 85.267 24.8 87.187 24.8C88.147 24.8 89.067 24.89 89.947 25.07C90.827 25.23 91.527 25.41 92.047 25.61L91.267 29.09C90.747 28.91 90.177 28.75 89.557 28.61C88.957 28.47 88.277 28.4 87.517 28.4C86.117 28.4 85.417 28.79 85.417 29.57C85.417 29.75 85.447 29.91 85.507 30.05C85.567 30.19 85.687 30.33 85.867 30.47C86.047 30.59 86.287 30.73 86.587 30.89C86.907 31.03 87.307 31.19 87.787 31.37C88.767 31.73 89.577 32.09 90.217 32.45C90.857 32.79 91.357 33.17 91.717 33.59C92.097 33.99 92.357 34.44 92.497 34.94C92.657 35.44 92.737 36.02 92.737 36.68C92.737 38.24 92.147 39.42 90.967 40.22C89.807 41.02 88.157 41.42 86.017 41.42C84.617 41.42 83.447 41.3 82.507 41.06C81.587 40.82 80.947 40.62 80.587 40.46L81.337 36.83C82.097 37.13 82.877 37.37 83.677 37.55C84.477 37.71 85.267 37.79 86.047 37.79ZM110.328 22.43C110.568 23.25 110.828 24.18 111.108 25.22C111.408 26.24 111.718 27.3 112.038 28.4C112.378 29.5 112.718 30.6 113.058 31.7C113.398 32.8 113.728 33.82 114.048 34.76C114.308 33.74 114.568 32.63 114.828 31.43C115.108 30.23 115.368 28.99 115.608 27.71C115.848 26.43 116.078 25.16 116.298 23.9C116.538 22.62 116.758 21.39 116.958 20.21H121.818C121.118 23.69 120.308 27.22 119.388 30.8C118.488 34.38 117.508 37.78 116.448 41H112.158C111.458 39.08 110.778 37.07 110.118 34.97C109.458 32.85 108.808 30.73 108.168 28.61C107.528 30.73 106.888 32.85 106.248 34.97C105.608 37.07 104.938 39.08 104.238 41H99.9475C98.8875 37.78 97.8975 34.38 96.9775 30.8C96.0775 27.22 95.2775 23.69 94.5775 20.21H99.6475C99.8475 21.39 100.068 22.62 100.308 23.9C100.548 25.16 100.798 26.43 101.058 27.71C101.318 28.99 101.578 30.23 101.838 31.43C102.118 32.63 102.398 33.74 102.678 34.76C103.038 33.78 103.388 32.74 103.728 31.64C104.068 30.54 104.398 29.44 104.718 28.34C105.038 27.24 105.328 26.18 105.588 25.16C105.868 24.14 106.118 23.23 106.338 22.43H110.328ZM129.705 37.88C130.145 37.88 130.565 37.87 130.965 37.85C131.365 37.83 131.685 37.8 131.925 37.76V34.37C131.745 34.33 131.475 34.29 131.115 34.25C130.755 34.21 130.425 34.19 130.125 34.19C129.705 34.19 129.305 34.22 128.925 34.28C128.565 34.32 128.245 34.41 127.965 34.55C127.685 34.69 127.465 34.88 127.305 35.12C127.145 35.36 127.065 35.66 127.065 36.02C127.065 36.72 127.295 37.21 127.755 37.49C128.235 37.75 128.885 37.88 129.705 37.88ZM129.345 24.8C130.665 24.8 131.765 24.95 132.645 25.25C133.525 25.55 134.225 25.98 134.745 26.54C135.285 27.1 135.665 27.78 135.885 28.58C136.105 29.38 136.215 30.27 136.215 31.25V40.55C135.575 40.69 134.685 40.85 133.545 41.03C132.405 41.23 131.025 41.33 129.405 41.33C128.385 41.33 127.455 41.24 126.615 41.06C125.795 40.88 125.085 40.59 124.485 40.19C123.885 39.77 123.425 39.23 123.105 38.57C122.785 37.91 122.625 37.1 122.625 36.14C122.625 35.22 122.805 34.44 123.165 33.8C123.545 33.16 124.045 32.65 124.665 32.27C125.285 31.89 125.995 31.62 126.795 31.46C127.595 31.28 128.425 31.19 129.285 31.19C129.865 31.19 130.375 31.22 130.815 31.28C131.275 31.32 131.645 31.38 131.925 31.46V31.04C131.925 30.28 131.695 29.67 131.235 29.21C130.775 28.75 129.975 28.52 128.835 28.52C128.075 28.52 127.325 28.58 126.585 28.7C125.845 28.8 125.205 28.95 124.665 29.15L124.095 25.55C124.355 25.47 124.675 25.39 125.055 25.31C125.455 25.21 125.885 25.13 126.345 25.07C126.805 24.99 127.285 24.93 127.785 24.89C128.305 24.83 128.825 24.8 129.345 24.8ZM144.166 41C143.146 39 142.106 36.66 141.046 33.98C140.006 31.3 139.016 28.38 138.076 25.22H142.816C143.016 26 143.246 26.85 143.506 27.77C143.786 28.67 144.066 29.59 144.346 30.53C144.646 31.45 144.936 32.35 145.216 33.23C145.516 34.11 145.806 34.91 146.086 35.63C146.346 34.91 146.626 34.11 146.926 33.23C147.226 32.35 147.516 31.45 147.796 30.53C148.096 29.59 148.376 28.67 148.636 27.77C148.916 26.85 149.156 26 149.356 25.22H153.976C153.036 28.38 152.036 31.3 150.976 33.98C149.936 36.66 148.906 39 147.886 41H144.166ZM155.21 33.23C155.21 31.83 155.42 30.61 155.84 29.57C156.28 28.51 156.85 27.63 157.55 26.93C158.25 26.23 159.05 25.7 159.95 25.34C160.87 24.98 161.81 24.8 162.77 24.8C165.01 24.8 166.78 25.49 168.08 26.87C169.38 28.23 170.03 30.24 170.03 32.9C170.03 33.16 170.02 33.45 170 33.77C169.98 34.07 169.96 34.34 169.94 34.58H159.8C159.9 35.5 160.33 36.23 161.09 36.77C161.85 37.31 162.87 37.58 164.15 37.58C164.97 37.58 165.77 37.51 166.55 37.37C167.35 37.21 168 37.02 168.5 36.8L169.1 40.43C168.86 40.55 168.54 40.67 168.14 40.79C167.74 40.91 167.29 41.01 166.79 41.09C166.31 41.19 165.79 41.27 165.23 41.33C164.67 41.39 164.11 41.42 163.55 41.42C162.13 41.42 160.89 41.21 159.83 40.79C158.79 40.37 157.92 39.8 157.22 39.08C156.54 38.34 156.03 37.47 155.69 36.47C155.37 35.47 155.21 34.39 155.21 33.23ZM165.71 31.52C165.69 31.14 165.62 30.77 165.5 30.41C165.4 30.05 165.23 29.73 164.99 29.45C164.77 29.17 164.48 28.94 164.12 28.76C163.78 28.58 163.35 28.49 162.83 28.49C162.33 28.49 161.9 28.58 161.54 28.76C161.18 28.92 160.88 29.14 160.64 29.42C160.4 29.7 160.21 30.03 160.07 30.41C159.95 30.77 159.86 31.14 159.8 31.52H165.71Z" fill="white"/>
<path d="M23.2935 60V49.8182H29.3986V50.9119H24.5265V54.3523H28.9412V55.446H24.5265V60H23.2935ZM33.5984 60.179C33.1145 60.179 32.6753 60.0878 32.2809 59.9055C31.8865 59.7199 31.5733 59.4531 31.3413 59.1051C31.1093 58.7538 30.9933 58.3295 30.9933 57.8324C30.9933 57.3949 31.0794 57.0402 31.2518 56.7685C31.4241 56.4934 31.6545 56.2779 31.9428 56.1222C32.2312 55.9664 32.5494 55.8504 32.8974 55.7741C33.2487 55.6946 33.6017 55.6316 33.9563 55.5852C34.4203 55.5256 34.7965 55.4808 35.0849 55.451C35.3765 55.4179 35.5887 55.3632 35.7212 55.2869C35.8571 55.2107 35.9251 55.0781 35.9251 54.8892V54.8494C35.9251 54.3589 35.7908 53.9777 35.5224 53.706C35.2572 53.4342 34.8545 53.2983 34.3143 53.2983C33.7541 53.2983 33.315 53.4209 32.9968 53.6662C32.6786 53.9115 32.4549 54.1733 32.3256 54.4517L31.212 54.054C31.4109 53.59 31.676 53.2287 32.0075 52.9702C32.3422 52.7083 32.7068 52.526 33.1012 52.4233C33.4989 52.3172 33.89 52.2642 34.2745 52.2642C34.5198 52.2642 34.8015 52.294 35.1197 52.3537C35.4412 52.41 35.7511 52.5277 36.0494 52.7067C36.351 52.8857 36.6012 53.1558 36.8001 53.517C36.9989 53.8783 37.0984 54.3622 37.0984 54.9688V60H35.9251V58.9659H35.8654C35.7859 59.1316 35.6533 59.3089 35.4677 59.4979C35.2821 59.6868 35.0352 59.8475 34.7269 59.9801C34.4187 60.1127 34.0425 60.179 33.5984 60.179ZM33.7773 59.125C34.2414 59.125 34.6325 59.0339 34.9506 58.8516C35.2721 58.6693 35.5141 58.4339 35.6765 58.1456C35.8422 57.8572 35.9251 57.554 35.9251 57.2358V56.1619C35.8754 56.2216 35.766 56.2763 35.5969 56.326C35.4312 56.3724 35.239 56.4138 35.0202 56.4503C34.8048 56.4834 34.5943 56.5133 34.3888 56.5398C34.1867 56.563 34.0226 56.5829 33.8967 56.5994C33.5917 56.6392 33.3067 56.7038 33.0415 56.7933C32.7797 56.8795 32.5676 57.0104 32.4052 57.1861C32.2461 57.3584 32.1665 57.5937 32.1665 57.892C32.1665 58.2997 32.3174 58.608 32.619 58.8168C32.9239 59.0223 33.31 59.125 33.7773 59.125ZM42.3422 60.1591C41.6262 60.1591 41.0098 59.9901 40.4927 59.652C39.9757 59.3139 39.5779 58.8482 39.2995 58.255C39.0211 57.6617 38.8819 56.9839 38.8819 56.2216C38.8819 55.446 39.0244 54.7616 39.3095 54.1683C39.5978 53.5717 39.9989 53.1061 40.5126 52.7713C41.0297 52.4332 41.6329 52.2642 42.3223 52.2642C42.8592 52.2642 43.3431 52.3636 43.774 52.5625C44.2048 52.7614 44.5578 53.0398 44.8329 53.3977C45.108 53.7557 45.2787 54.1733 45.345 54.6506H44.1717C44.0822 54.3026 43.8833 53.9943 43.5751 53.7259C43.2702 53.4541 42.8592 53.3182 42.3422 53.3182C41.8848 53.3182 41.4837 53.4375 41.139 53.6761C40.7976 53.9115 40.5308 54.2446 40.3386 54.6754C40.1497 55.103 40.0552 55.6051 40.0552 56.1818C40.0552 56.7718 40.148 57.2855 40.3336 57.723C40.5225 58.1605 40.7877 58.5002 41.1291 58.7422C41.4738 58.9841 41.8781 59.1051 42.3422 59.1051C42.6471 59.1051 42.9238 59.0521 43.1724 58.946C43.421 58.84 43.6315 58.6875 43.8038 58.4886C43.9761 58.2898 44.0988 58.0511 44.1717 57.7727H45.345C45.2787 58.2235 45.1146 58.6295 44.8528 58.9908C44.5943 59.3487 44.2512 59.6338 43.8237 59.8459C43.3994 60.0547 42.9056 60.1591 42.3422 60.1591ZM47.0602 60V52.3636H48.2335V60H47.0602ZM47.6568 51.0909C47.4281 51.0909 47.2309 51.013 47.0652 50.8572C46.9028 50.7015 46.8216 50.5142 46.8216 50.2955C46.8216 50.0767 46.9028 49.8894 47.0652 49.7337C47.2309 49.5779 47.4281 49.5 47.6568 49.5C47.8855 49.5 48.081 49.5779 48.2434 49.7337C48.4092 49.8894 48.492 50.0767 48.492 50.2955C48.492 50.5142 48.4092 50.7015 48.2434 50.8572C48.081 51.013 47.8855 51.0909 47.6568 51.0909ZM51.5558 49.8182V60H50.3825V49.8182H51.5558ZM53.7047 60V52.3636H54.878V60H53.7047ZM54.3013 51.0909C54.0726 51.0909 53.8754 51.013 53.7097 50.8572C53.5473 50.7015 53.4661 50.5142 53.4661 50.2955C53.4661 50.0767 53.5473 49.8894 53.7097 49.7337C53.8754 49.5779 54.0726 49.5 54.3013 49.5C54.53 49.5 54.7256 49.5779 54.888 49.7337C55.0537 49.8894 55.1365 50.0767 55.1365 50.2955C55.1365 50.5142 55.0537 50.7015 54.888 50.8572C54.7256 51.013 54.53 51.0909 54.3013 51.0909ZM60.348 52.3636V53.358H56.3906V52.3636H60.348ZM57.544 50.5341H58.7173V57.8125C58.7173 58.1439 58.7654 58.3925 58.8615 58.5582C58.9609 58.7206 59.0869 58.83 59.2393 58.8864C59.3951 58.9394 59.5592 58.9659 59.7315 58.9659C59.8608 58.9659 59.9669 58.9593 60.0497 58.946C60.1326 58.9295 60.1989 58.9162 60.2486 58.9062L60.4872 59.9602C60.4077 59.9901 60.2966 60.0199 60.1541 60.0497C60.0116 60.0829 59.831 60.0994 59.6122 60.0994C59.2808 60.0994 58.956 60.0282 58.6378 59.8857C58.3229 59.7431 58.0611 59.526 57.8523 59.2344C57.6468 58.9427 57.544 58.5748 57.544 58.1307V50.5341ZM65.2326 60.1591C64.4968 60.1591 63.8621 59.9967 63.3285 59.6719C62.7982 59.3438 62.3888 58.8864 62.1005 58.2997C61.8155 57.7098 61.6729 57.0237 61.6729 56.2415C61.6729 55.4593 61.8155 54.7699 62.1005 54.1733C62.3888 53.5734 62.7899 53.1061 63.3036 52.7713C63.8207 52.4332 64.4239 52.2642 65.1133 52.2642C65.511 52.2642 65.9038 52.3305 66.2915 52.4631C66.6793 52.5956 67.0323 52.8111 67.3505 53.1094C67.6687 53.4044 67.9222 53.7955 68.1112 54.2827C68.3001 54.7699 68.3945 55.3698 68.3945 56.0824V56.5795H62.5082V55.5653H67.2013C67.2013 55.1345 67.1152 54.75 66.9428 54.4119C66.7738 54.0739 66.5318 53.8071 66.217 53.6115C65.9054 53.416 65.5375 53.3182 65.1133 53.3182C64.646 53.3182 64.2416 53.4342 63.9002 53.6662C63.5621 53.8949 63.302 54.1932 63.1197 54.5611C62.9374 54.929 62.8462 55.3234 62.8462 55.7443V56.4205C62.8462 56.9972 62.9457 57.486 63.1445 57.8871C63.3467 58.2848 63.6268 58.5881 63.9847 58.7969C64.3427 59.0024 64.7586 59.1051 65.2326 59.1051C65.5408 59.1051 65.8192 59.062 66.0678 58.9759C66.3197 58.8864 66.5368 58.7538 66.7191 58.5781C66.9014 58.3991 67.0423 58.1771 67.1417 57.9119L68.2752 58.2301C68.1559 58.6146 67.9554 58.9527 67.6737 59.2443C67.3919 59.5327 67.0439 59.758 66.6296 59.9205C66.2153 60.0795 65.7496 60.1591 65.2326 60.1591ZM79.5259 54.0739L78.4719 54.3722C78.4057 54.1965 78.3079 54.0258 78.1786 53.8601C78.0527 53.6911 77.8803 53.5518 77.6616 53.4425C77.4428 53.3331 77.1628 53.2784 76.8214 53.2784C76.354 53.2784 75.9646 53.3861 75.6531 53.6016C75.3448 53.8137 75.1907 54.0838 75.1907 54.4119C75.1907 54.7036 75.2968 54.9339 75.5089 55.103C75.721 55.272 76.0524 55.4129 76.5032 55.5256L77.6367 55.804C78.3195 55.9697 78.8282 56.2232 79.163 56.5646C79.4978 56.9027 79.6651 57.3385 79.6651 57.8722C79.6651 58.3097 79.5392 58.7008 79.2873 59.0455C79.0387 59.3902 78.6907 59.6619 78.2433 59.8608C77.7958 60.0597 77.2754 60.1591 76.6822 60.1591C75.9033 60.1591 75.2586 59.9901 74.7482 59.652C74.2378 59.3139 73.9147 58.8201 73.7788 58.1705L74.8924 57.892C74.9985 58.303 75.199 58.6113 75.494 58.8168C75.7923 59.0223 76.1817 59.125 76.6623 59.125C77.2092 59.125 77.6433 59.009 77.9648 58.777C78.2897 58.5417 78.4521 58.2599 78.4521 57.9318C78.4521 57.6667 78.3593 57.4446 78.1737 57.2656C77.988 57.0833 77.703 56.9474 77.3185 56.858L76.0458 56.5597C75.3465 56.3939 74.8327 56.1371 74.5046 55.7891C74.1798 55.4377 74.0174 54.9986 74.0174 54.4716C74.0174 54.0407 74.1384 53.6596 74.3803 53.3281C74.6256 52.9967 74.9587 52.7365 75.3796 52.5476C75.8039 52.3587 76.2844 52.2642 76.8214 52.2642C77.5771 52.2642 78.1703 52.4299 78.6012 52.7614C79.0354 53.0928 79.3436 53.5303 79.5259 54.0739ZM84.633 60.1591C83.8972 60.1591 83.2625 59.9967 82.7289 59.6719C82.1986 59.3438 81.7892 58.8864 81.5009 58.2997C81.2158 57.7098 81.0733 57.0237 81.0733 56.2415C81.0733 55.4593 81.2158 54.7699 81.5009 54.1733C81.7892 53.5734 82.1903 53.1061 82.704 52.7713C83.2211 52.4332 83.8243 52.2642 84.5137 52.2642C84.9114 52.2642 85.3042 52.3305 85.6919 52.4631C86.0797 52.5956 86.4327 52.8111 86.7509 53.1094C87.0691 53.4044 87.3226 53.7955 87.5115 54.2827C87.7005 54.7699 87.7949 55.3698 87.7949 56.0824V56.5795H81.9086V55.5653H86.6017C86.6017 55.1345 86.5156 54.75 86.3432 54.4119C86.1742 54.0739 85.9322 53.8071 85.6174 53.6115C85.3058 53.416 84.9379 53.3182 84.5137 53.3182C84.0463 53.3182 83.642 53.4342 83.3006 53.6662C82.9625 53.8949 82.7024 54.1932 82.5201 54.5611C82.3378 54.929 82.2466 55.3234 82.2466 55.7443V56.4205C82.2466 56.9972 82.3461 57.486 82.5449 57.8871C82.7471 58.2848 83.0272 58.5881 83.3851 58.7969C83.7431 59.0024 84.159 59.1051 84.633 59.1051C84.9412 59.1051 85.2196 59.062 85.4682 58.9759C85.7201 58.8864 85.9372 58.7538 86.1195 58.5781C86.3018 58.3991 86.4426 58.1771 86.5421 57.9119L87.6756 58.2301C87.5563 58.6146 87.3558 58.9527 87.074 59.2443C86.7923 59.5327 86.4443 59.758 86.03 59.9205C85.6157 60.0795 85.15 60.1591 84.633 60.1591ZM94.3922 56.8778V52.3636H95.5655V60H94.3922V58.7074H94.3127C94.1337 59.0952 93.8553 59.425 93.4775 59.6967C93.0996 59.9652 92.6223 60.0994 92.0456 60.0994C91.5684 60.0994 91.1441 59.995 90.7729 59.7862C90.4017 59.5741 90.11 59.2559 89.8979 58.8317C89.6858 58.4041 89.5797 57.8655 89.5797 57.2159V52.3636H90.753V57.1364C90.753 57.6932 90.9088 58.1373 91.2203 58.4688C91.5352 58.8002 91.9363 58.9659 92.4235 58.9659C92.7151 58.9659 93.0118 58.8913 93.3134 58.7422C93.6183 58.593 93.8735 58.3643 94.079 58.0561C94.2878 57.7479 94.3922 57.3551 94.3922 56.8778ZM103.124 54.0739L102.07 54.3722C102.003 54.1965 101.906 54.0258 101.776 53.8601C101.65 53.6911 101.478 53.5518 101.259 53.4425C101.04 53.3331 100.76 53.2784 100.419 53.2784C99.9517 53.2784 99.5623 53.3861 99.2507 53.6016C98.9425 53.8137 98.7884 54.0838 98.7884 54.4119C98.7884 54.7036 98.8944 54.9339 99.1065 55.103C99.3187 55.272 99.6501 55.4129 100.101 55.5256L101.234 55.804C101.917 55.9697 102.426 56.2232 102.761 56.5646C103.095 56.9027 103.263 57.3385 103.263 57.8722C103.263 58.3097 103.137 58.7008 102.885 59.0455C102.636 59.3902 102.288 59.6619 101.841 59.8608C101.393 60.0597 100.873 60.1591 100.28 60.1591C99.5009 60.1591 98.8563 59.9901 98.3459 59.652C97.8355 59.3139 97.5123 58.8201 97.3764 58.1705L98.4901 57.892C98.5961 58.303 98.7966 58.6113 99.0916 58.8168C99.3899 59.0223 99.7794 59.125 100.26 59.125C100.807 59.125 101.241 59.009 101.562 58.777C101.887 58.5417 102.05 58.2599 102.05 57.9318C102.05 57.6667 101.957 57.4446 101.771 57.2656C101.586 57.0833 101.301 56.9474 100.916 56.858L99.6435 56.5597C98.9441 56.3939 98.4304 56.1371 98.1023 55.7891C97.7775 55.4377 97.6151 54.9986 97.6151 54.4716C97.6151 54.0407 97.736 53.6596 97.978 53.3281C98.2232 52.9967 98.5563 52.7365 98.9773 52.5476C99.4015 52.3587 99.8821 52.2642 100.419 52.2642C101.175 52.2642 101.768 52.4299 102.199 52.7614C102.633 53.0928 102.941 53.5303 103.124 54.0739ZM112.168 60.1591C111.432 60.1591 110.798 59.9967 110.264 59.6719C109.734 59.3438 109.324 58.8864 109.036 58.2997C108.751 57.7098 108.608 57.0237 108.608 56.2415C108.608 55.4593 108.751 54.7699 109.036 54.1733C109.324 53.5734 109.725 53.1061 110.239 52.7713C110.756 52.4332 111.359 52.2642 112.049 52.2642C112.447 52.2642 112.839 52.3305 113.227 52.4631C113.615 52.5956 113.968 52.8111 114.286 53.1094C114.604 53.4044 114.858 53.7955 115.047 54.2827C115.236 54.7699 115.33 55.3698 115.33 56.0824V56.5795H109.444V55.5653H114.137C114.137 55.1345 114.051 54.75 113.878 54.4119C113.709 54.0739 113.467 53.8071 113.153 53.6115C112.841 53.416 112.473 53.3182 112.049 53.3182C111.581 53.3182 111.177 53.4342 110.836 53.6662C110.498 53.8949 110.238 54.1932 110.055 54.5611C109.873 54.929 109.782 55.3234 109.782 55.7443V56.4205C109.782 56.9972 109.881 57.486 110.08 57.8871C110.282 58.2848 110.562 58.5881 110.92 58.7969C111.278 59.0024 111.694 59.1051 112.168 59.1051C112.476 59.1051 112.755 59.062 113.003 58.9759C113.255 58.8864 113.472 58.7538 113.655 58.5781C113.837 58.3991 113.978 58.1771 114.077 57.9119L115.211 58.2301C115.091 58.6146 114.891 58.9527 114.609 59.2443C114.327 59.5327 113.979 59.758 113.565 59.9205C113.151 60.0795 112.685 60.1591 112.168 60.1591ZM122.524 54.0739L121.47 54.3722C121.404 54.1965 121.306 54.0258 121.177 53.8601C121.051 53.6911 120.878 53.5518 120.66 53.4425C120.441 53.3331 120.161 53.2784 119.819 53.2784C119.352 53.2784 118.963 53.3861 118.651 53.6016C118.343 53.8137 118.189 54.0838 118.189 54.4119C118.189 54.7036 118.295 54.9339 118.507 55.103C118.719 55.272 119.05 55.4129 119.501 55.5256L120.635 55.804C121.318 55.9697 121.826 56.2232 122.161 56.5646C122.496 56.9027 122.663 57.3385 122.663 57.8722C122.663 58.3097 122.537 58.7008 122.285 59.0455C122.037 59.3902 121.689 59.6619 121.241 59.8608C120.794 60.0597 120.273 60.1591 119.68 60.1591C118.901 60.1591 118.257 59.9901 117.746 59.652C117.236 59.3139 116.913 58.8201 116.777 58.1705L117.89 57.892C117.997 58.303 118.197 58.6113 118.492 58.8168C118.79 59.0223 119.18 59.125 119.66 59.125C120.207 59.125 120.641 59.009 120.963 58.777C121.288 58.5417 121.45 58.2599 121.45 57.9318C121.45 57.6667 121.357 57.4446 121.172 57.2656C120.986 57.0833 120.701 56.9474 120.317 56.858L119.044 56.5597C118.345 56.3939 117.831 56.1371 117.503 55.7891C117.178 55.4377 117.015 54.9986 117.015 54.4716C117.015 54.0407 117.136 53.6596 117.378 53.3281C117.624 52.9967 117.957 52.7365 118.378 52.5476C118.802 52.3587 119.282 52.2642 119.819 52.2642C120.575 52.2642 121.168 52.4299 121.599 52.7614C122.033 53.0928 122.342 53.5303 122.524 54.0739ZM127.75 52.3636V53.358H123.793V52.3636H127.75ZM124.946 50.5341H126.12V57.8125C126.12 58.1439 126.168 58.3925 126.264 58.5582C126.363 58.7206 126.489 58.83 126.642 58.8864C126.797 58.9394 126.962 58.9659 127.134 58.9659C127.263 58.9659 127.369 58.9593 127.452 58.946C127.535 58.9295 127.601 58.9162 127.651 58.9062L127.89 59.9602C127.81 59.9901 127.699 60.0199 127.556 60.0497C127.414 60.0829 127.233 60.0994 127.015 60.0994C126.683 60.0994 126.358 60.0282 126.04 59.8857C125.725 59.7431 125.463 59.526 125.255 59.2344C125.049 58.9427 124.946 58.5748 124.946 58.1307V50.5341ZM134.328 56.8778V52.3636H135.501V60H134.328V58.7074H134.248C134.069 59.0952 133.791 59.425 133.413 59.6967C133.035 59.9652 132.558 60.0994 131.981 60.0994C131.504 60.0994 131.08 59.995 130.708 59.7862C130.337 59.5741 130.046 59.2559 129.833 58.8317C129.621 58.4041 129.515 57.8655 129.515 57.2159V52.3636H130.689V57.1364C130.689 57.6932 130.844 58.1373 131.156 58.4688C131.471 58.8002 131.872 58.9659 132.359 58.9659C132.651 58.9659 132.947 58.8913 133.249 58.7422C133.554 58.593 133.809 58.3643 134.015 58.0561C134.223 57.7479 134.328 57.3551 134.328 56.8778ZM140.534 60.1591C139.897 60.1591 139.335 59.9983 138.848 59.6768C138.361 59.352 137.98 58.8946 137.705 58.3047C137.43 57.7114 137.292 57.0104 137.292 56.2017C137.292 55.3996 137.43 54.7036 137.705 54.1136C137.98 53.5237 138.363 53.0679 138.853 52.7464C139.344 52.425 139.91 52.2642 140.553 52.2642C141.051 52.2642 141.443 52.3471 141.732 52.5128C142.023 52.6752 142.245 52.8608 142.398 53.0696C142.554 53.2751 142.675 53.4441 142.761 53.5767H142.86V49.8182H144.034V60H142.9V58.8267H142.761C142.675 58.9659 142.552 59.1416 142.393 59.3537C142.234 59.5625 142.007 59.7498 141.712 59.9155C141.417 60.0779 141.024 60.1591 140.534 60.1591ZM140.693 59.1051C141.163 59.1051 141.561 58.9825 141.886 58.7372C142.211 58.4886 142.458 58.1456 142.627 57.7081C142.796 57.2673 142.88 56.7585 142.88 56.1818C142.88 55.6117 142.797 55.1129 142.632 54.6854C142.466 54.2545 142.221 53.9197 141.896 53.6811C141.571 53.4392 141.17 53.3182 140.693 53.3182C140.195 53.3182 139.781 53.4458 139.45 53.701C139.122 53.9529 138.875 54.2959 138.709 54.7301C138.547 55.161 138.465 55.6449 138.465 56.1818C138.465 56.7254 138.548 57.2192 138.714 57.6634C138.883 58.1042 139.132 58.4555 139.46 58.7173C139.791 58.9759 140.202 59.1051 140.693 59.1051ZM149.448 60.1591C148.758 60.1591 148.153 59.995 147.633 59.6669C147.116 59.3388 146.712 58.8797 146.42 58.2898C146.132 57.6998 145.987 57.0104 145.987 56.2216C145.987 55.4261 146.132 54.7318 146.42 54.1385C146.712 53.5452 147.116 53.0845 147.633 52.7564C148.153 52.4283 148.758 52.2642 149.448 52.2642C150.137 52.2642 150.74 52.4283 151.257 52.7564C151.778 53.0845 152.182 53.5452 152.47 54.1385C152.762 54.7318 152.908 55.4261 152.908 56.2216C152.908 57.0104 152.762 57.6998 152.47 58.2898C152.182 58.8797 151.778 59.3388 151.257 59.6669C150.74 59.995 150.137 60.1591 149.448 60.1591ZM149.448 59.1051C149.971 59.1051 150.402 58.9709 150.74 58.7024C151.078 58.4339 151.329 58.081 151.491 57.6435C151.653 57.206 151.735 56.732 151.735 56.2216C151.735 55.7112 151.653 55.2356 151.491 54.7947C151.329 54.3539 151.078 53.9976 150.74 53.7259C150.402 53.4541 149.971 53.3182 149.448 53.3182C148.924 53.3182 148.493 53.4541 148.155 53.7259C147.817 53.9976 147.567 54.3539 147.404 54.7947C147.242 55.2356 147.161 55.7112 147.161 56.2216C147.161 56.732 147.242 57.206 147.404 57.6435C147.567 58.081 147.817 58.4339 148.155 58.7024C148.493 58.9709 148.924 59.1051 149.448 59.1051ZM160.108 54.0739L159.054 54.3722C158.988 54.1965 158.89 54.0258 158.761 53.8601C158.635 53.6911 158.462 53.5518 158.244 53.4425C158.025 53.3331 157.745 53.2784 157.403 53.2784C156.936 53.2784 156.547 53.3861 156.235 53.6016C155.927 53.8137 155.773 54.0838 155.773 54.4119C155.773 54.7036 155.879 54.9339 156.091 55.103C156.303 55.272 156.634 55.4129 157.085 55.5256L158.219 55.804C158.902 55.9697 159.41 56.2232 159.745 56.5646C160.08 56.9027 160.247 57.3385 160.247 57.8722C160.247 58.3097 160.121 58.7008 159.869 59.0455C159.621 59.3902 159.273 59.6619 158.825 59.8608C158.378 60.0597 157.857 60.1591 157.264 60.1591C156.485 60.1591 155.841 59.9901 155.33 59.652C154.82 59.3139 154.497 58.8201 154.361 58.1705L155.474 57.892C155.58 58.303 155.781 58.6113 156.076 58.8168C156.374 59.0223 156.764 59.125 157.244 59.125C157.791 59.125 158.225 59.009 158.547 58.777C158.872 58.5417 159.034 58.2599 159.034 57.9318C159.034 57.6667 158.941 57.4446 158.756 57.2656C158.57 57.0833 158.285 56.9474 157.901 56.858L156.628 56.5597C155.929 56.3939 155.415 56.1371 155.087 55.7891C154.762 55.4377 154.599 54.9986 154.599 54.4716C154.599 54.0407 154.72 53.6596 154.962 53.3281C155.208 52.9967 155.541 52.7365 155.962 52.5476C156.386 52.3587 156.866 52.2642 157.403 52.2642C158.159 52.2642 158.752 52.4299 159.183 52.7614C159.617 53.0928 159.926 53.5303 160.108 54.0739ZM42.4994 77.1591C41.7835 77.1591 41.167 76.9901 40.6499 76.652C40.1329 76.3139 39.7352 75.8482 39.4568 75.255C39.1784 74.6617 39.0392 73.9839 39.0392 73.2216C39.0392 72.446 39.1817 71.7616 39.4667 71.1683C39.7551 70.5717 40.1561 70.1061 40.6698 69.7713C41.1869 69.4332 41.7901 69.2642 42.4795 69.2642C43.0164 69.2642 43.5003 69.3636 43.9312 69.5625C44.3621 69.7614 44.7151 70.0398 44.9901 70.3977C45.2652 70.7557 45.4359 71.1733 45.5022 71.6506H44.3289C44.2394 71.3026 44.0406 70.9943 43.7323 70.7259C43.4274 70.4541 43.0164 70.3182 42.4994 70.3182C42.042 70.3182 41.641 70.4375 41.2963 70.6761C40.9549 70.9115 40.6881 71.2446 40.4958 71.6754C40.3069 72.103 40.2124 72.6051 40.2124 73.1818C40.2124 73.7718 40.3052 74.2855 40.4909 74.723C40.6798 75.1605 40.9449 75.5002 41.2863 75.7422C41.631 75.9841 42.0354 76.1051 42.4994 76.1051C42.8043 76.1051 43.0811 76.0521 43.3296 75.946C43.5782 75.84 43.7887 75.6875 43.961 75.4886C44.1334 75.2898 44.256 75.0511 44.3289 74.7727H45.5022C45.4359 75.2235 45.2719 75.6295 45.01 75.9908C44.7515 76.3487 44.4085 76.6338 43.9809 76.8459C43.5567 77.0547 43.0628 77.1591 42.4994 77.1591ZM50.3197 77.1591C49.6303 77.1591 49.0254 76.995 48.5051 76.6669C47.988 76.3388 47.5837 75.8797 47.292 75.2898C47.0036 74.6998 46.8595 74.0104 46.8595 73.2216C46.8595 72.4261 47.0036 71.7318 47.292 71.1385C47.5837 70.5452 47.988 70.0845 48.5051 69.7564C49.0254 69.4283 49.6303 69.2642 50.3197 69.2642C51.0091 69.2642 51.6123 69.4283 52.1294 69.7564C52.6497 70.0845 53.0541 70.5452 53.3424 71.1385C53.6341 71.7318 53.7799 72.4261 53.7799 73.2216C53.7799 74.0104 53.6341 74.6998 53.3424 75.2898C53.0541 75.8797 52.6497 76.3388 52.1294 76.6669C51.6123 76.995 51.0091 77.1591 50.3197 77.1591ZM50.3197 76.1051C50.8434 76.1051 51.2742 75.9709 51.6123 75.7024C51.9504 75.4339 52.2006 75.081 52.363 74.6435C52.5254 74.206 52.6066 73.732 52.6066 73.2216C52.6066 72.7112 52.5254 72.2356 52.363 71.7947C52.2006 71.3539 51.9504 70.9976 51.6123 70.7259C51.2742 70.4541 50.8434 70.3182 50.3197 70.3182C49.796 70.3182 49.3651 70.4541 49.0271 70.7259C48.689 70.9976 48.4388 71.3539 48.2764 71.7947C48.114 72.2356 48.0328 72.7112 48.0328 73.2216C48.0328 73.732 48.114 74.206 48.2764 74.6435C48.4388 75.081 48.689 75.4339 49.0271 75.7024C49.3651 75.9709 49.796 76.1051 50.3197 76.1051ZM55.5709 77V69.3636H56.7045V70.5568H56.8039C56.963 70.1491 57.2198 69.8326 57.5745 69.6072C57.9291 69.3786 58.355 69.2642 58.8522 69.2642C59.356 69.2642 59.7752 69.3786 60.11 69.6072C60.4481 69.8326 60.7116 70.1491 60.9005 70.5568H60.98C61.1756 70.1624 61.4689 69.8492 61.86 69.6172C62.2511 69.3819 62.7201 69.2642 63.267 69.2642C63.9497 69.2642 64.5082 69.478 64.9424 69.9055C65.3766 70.3298 65.5937 70.991 65.5937 71.8892V77H64.4204V71.8892C64.4204 71.3258 64.2662 70.9231 63.958 70.6811C63.6498 70.4392 63.2868 70.3182 62.8692 70.3182C62.3323 70.3182 61.9163 70.4806 61.6214 70.8054C61.3264 71.1269 61.1789 71.5346 61.1789 72.0284V77H59.9857V71.7699C59.9857 71.3357 59.8448 70.986 59.5631 70.7209C59.2814 70.4524 58.9185 70.3182 58.4743 70.3182C58.1694 70.3182 57.8844 70.3994 57.6192 70.5618C57.3574 70.7242 57.1453 70.9496 56.9829 71.2379C56.8238 71.523 56.7442 71.8527 56.7442 72.2273V77H55.5709ZM71.8355 77V66.8182H77.9406V67.9119H73.0684V71.3523H77.4832V72.446H73.0684V77H71.8355ZM81.0665 66.8182V77H79.8932V66.8182H81.0665ZM85.4626 77.179C84.9787 77.179 84.5396 77.0878 84.1452 76.9055C83.7507 76.7199 83.4375 76.4531 83.2055 76.1051C82.9735 75.7538 82.8575 75.3295 82.8575 74.8324C82.8575 74.3949 82.9437 74.0402 83.116 73.7685C83.2884 73.4934 83.5187 73.2779 83.8071 73.1222C84.0954 72.9664 84.4136 72.8504 84.7616 72.7741C85.113 72.6946 85.4659 72.6316 85.8206 72.5852C86.2846 72.5256 86.6608 72.4808 86.9491 72.451C87.2408 72.4179 87.4529 72.3632 87.5855 72.2869C87.7214 72.2107 87.7893 72.0781 87.7893 71.8892V71.8494C87.7893 71.3589 87.6551 70.9777 87.3866 70.706C87.1215 70.4342 86.7188 70.2983 86.1785 70.2983C85.6184 70.2983 85.1792 70.4209 84.8611 70.6662C84.5429 70.9115 84.3192 71.1733 84.1899 71.4517L83.0763 71.054C83.2751 70.59 83.5403 70.2287 83.8717 69.9702C84.2065 69.7083 84.5711 69.526 84.9655 69.4233C85.3632 69.3172 85.7543 69.2642 86.1388 69.2642C86.384 69.2642 86.6657 69.294 86.9839 69.3537C87.3054 69.41 87.6153 69.5277 87.9136 69.7067C88.2152 69.8857 88.4655 70.1558 88.6643 70.517C88.8632 70.8783 88.9626 71.3622 88.9626 71.9688V77H87.7893V75.9659H87.7297C87.6501 76.1316 87.5175 76.3089 87.3319 76.4979C87.1463 76.6868 86.8994 76.8475 86.5912 76.9801C86.2829 77.1127 85.9068 77.179 85.4626 77.179ZM85.6416 76.125C86.1056 76.125 86.4967 76.0339 86.8149 75.8516C87.1364 75.6693 87.3783 75.4339 87.5407 75.1456C87.7065 74.8572 87.7893 74.554 87.7893 74.2358V73.1619C87.7396 73.2216 87.6302 73.2763 87.4612 73.326C87.2955 73.3724 87.1032 73.4138 86.8845 73.4503C86.6691 73.4834 86.4586 73.5133 86.2531 73.5398C86.0509 73.563 85.8869 73.5829 85.7609 73.5994C85.456 73.6392 85.171 73.7038 84.9058 73.7933C84.644 73.8795 84.4318 74.0104 84.2694 74.1861C84.1104 74.3584 84.0308 74.5937 84.0308 74.892C84.0308 75.2997 84.1816 75.608 84.4832 75.8168C84.7881 76.0223 85.1743 76.125 85.6416 76.125ZM96.5132 71.0739L95.4593 71.3722C95.393 71.1965 95.2952 71.0258 95.1659 70.8601C95.04 70.6911 94.8676 70.5518 94.6489 70.4425C94.4301 70.3331 94.1501 70.2784 93.8087 70.2784C93.3414 70.2784 92.9519 70.3861 92.6404 70.6016C92.3321 70.8137 92.178 71.0838 92.178 71.4119C92.178 71.7036 92.2841 71.9339 92.4962 72.103C92.7083 72.272 93.0397 72.4129 93.4905 72.5256L94.624 72.804C95.3068 72.9697 95.8155 73.2232 96.1503 73.5646C96.4851 73.9027 96.6524 74.3385 96.6524 74.8722C96.6524 75.3097 96.5265 75.7008 96.2746 76.0455C96.026 76.3902 95.678 76.6619 95.2306 76.8608C94.7831 77.0597 94.2628 77.1591 93.6695 77.1591C92.8906 77.1591 92.2459 76.9901 91.7355 76.652C91.2251 76.3139 90.902 75.8201 90.7661 75.1705L91.8797 74.892C91.9858 75.303 92.1863 75.6113 92.4813 75.8168C92.7796 76.0223 93.169 76.125 93.6496 76.125C94.1965 76.125 94.6307 76.009 94.9521 75.777C95.277 75.5417 95.4394 75.2599 95.4394 74.9318C95.4394 74.6667 95.3466 74.4446 95.161 74.2656C94.9753 74.0833 94.6903 73.9474 94.3058 73.858L93.0331 73.5597C92.3338 73.3939 91.82 73.1371 91.4919 72.7891C91.1671 72.4377 91.0047 71.9986 91.0047 71.4716C91.0047 71.0407 91.1257 70.6596 91.3676 70.3281C91.6129 69.9967 91.946 69.7365 92.3669 69.5476C92.7912 69.3587 93.2718 69.2642 93.8087 69.2642C94.5644 69.2642 95.1576 69.4299 95.5885 69.7614C96.0227 70.0928 96.3309 70.5303 96.5132 71.0739ZM99.5919 72.4062V77H98.4186V66.8182H99.5919V70.5568H99.6913C99.8703 70.1624 100.139 69.8492 100.497 69.6172C100.858 69.3819 101.339 69.2642 101.938 69.2642C102.459 69.2642 102.915 69.3686 103.306 69.5774C103.697 69.7829 104 70.0994 104.215 70.527C104.434 70.9512 104.544 71.4915 104.544 72.1477V77H103.37V72.2273C103.37 71.6207 103.213 71.1518 102.898 70.8203C102.586 70.4856 102.154 70.3182 101.6 70.3182C101.216 70.3182 100.871 70.3994 100.566 70.5618C100.265 70.7242 100.026 70.9612 99.8504 71.2727C99.6781 71.5843 99.5919 71.9621 99.5919 72.4062ZM115.042 70H113.809C113.736 69.6454 113.609 69.3338 113.427 69.0653C113.248 68.7969 113.029 68.5715 112.77 68.3892C112.515 68.2036 112.232 68.0644 111.92 67.9716C111.609 67.8788 111.284 67.8324 110.946 67.8324C110.329 67.8324 109.771 67.9882 109.27 68.2997C108.773 68.6113 108.377 69.0703 108.082 69.6768C107.79 70.2834 107.645 71.0275 107.645 71.9091C107.645 72.7907 107.79 73.5348 108.082 74.1413C108.377 74.7479 108.773 75.2069 109.27 75.5185C109.771 75.83 110.329 75.9858 110.946 75.9858C111.284 75.9858 111.609 75.9394 111.92 75.8466C112.232 75.7538 112.515 75.6162 112.77 75.4339C113.029 75.2483 113.248 75.0213 113.427 74.7528C113.609 74.4811 113.736 74.1695 113.809 73.8182H115.042C114.95 74.3385 114.781 74.8042 114.535 75.2152C114.29 75.6262 113.985 75.9759 113.62 76.2642C113.256 76.5492 112.847 76.7663 112.392 76.9155C111.942 77.0646 111.459 77.1392 110.946 77.1392C110.077 77.1392 109.305 76.9271 108.629 76.5028C107.953 76.0786 107.421 75.4754 107.033 74.6932C106.645 73.911 106.451 72.983 106.451 71.9091C106.451 70.8352 106.645 69.9072 107.033 69.125C107.421 68.3428 107.953 67.7396 108.629 67.3153C109.305 66.8911 110.077 66.679 110.946 66.679C111.459 66.679 111.942 66.7536 112.392 66.9027C112.847 67.0518 113.256 67.2706 113.62 67.5589C113.985 67.844 114.29 68.192 114.535 68.603C114.781 69.0107 114.95 69.4763 115.042 70ZM119.123 77.179C118.639 77.179 118.2 77.0878 117.805 76.9055C117.411 76.7199 117.098 76.4531 116.866 76.1051C116.634 75.7538 116.518 75.3295 116.518 74.8324C116.518 74.3949 116.604 74.0402 116.776 73.7685C116.949 73.4934 117.179 73.2779 117.467 73.1222C117.756 72.9664 118.074 72.8504 118.422 72.7741C118.773 72.6946 119.126 72.6316 119.481 72.5852C119.945 72.5256 120.321 72.4808 120.609 72.451C120.901 72.4179 121.113 72.3632 121.246 72.2869C121.382 72.2107 121.449 72.0781 121.449 71.8892V71.8494C121.449 71.3589 121.315 70.9777 121.047 70.706C120.782 70.4342 120.379 70.2983 119.839 70.2983C119.279 70.2983 118.839 70.4209 118.521 70.6662C118.203 70.9115 117.979 71.1733 117.85 71.4517L116.736 71.054C116.935 70.59 117.2 70.2287 117.532 69.9702C117.867 69.7083 118.231 69.526 118.626 69.4233C119.023 69.3172 119.414 69.2642 119.799 69.2642C120.044 69.2642 120.326 69.294 120.644 69.3537C120.966 69.41 121.275 69.5277 121.574 69.7067C121.875 69.8857 122.126 70.1558 122.324 70.517C122.523 70.8783 122.623 71.3622 122.623 71.9688V77H121.449V75.9659H121.39C121.31 76.1316 121.178 76.3089 120.992 76.4979C120.806 76.6868 120.56 76.8475 120.251 76.9801C119.943 77.1127 119.567 77.179 119.123 77.179ZM119.302 76.125C119.766 76.125 120.157 76.0339 120.475 75.8516C120.797 75.6693 121.039 75.4339 121.201 75.1456C121.367 74.8572 121.449 74.554 121.449 74.2358V73.1619C121.4 73.2216 121.29 73.2763 121.121 73.326C120.956 73.3724 120.763 73.4138 120.545 73.4503C120.329 73.4834 120.119 73.5133 119.913 73.5398C119.711 73.563 119.547 73.5829 119.421 73.5994C119.116 73.6392 118.831 73.7038 118.566 73.7933C118.304 73.8795 118.092 74.0104 117.93 74.1861C117.771 74.3584 117.691 74.5937 117.691 74.892C117.691 75.2997 117.842 75.608 118.143 75.8168C118.448 76.0223 118.834 76.125 119.302 76.125ZM124.764 77V69.3636H125.898V70.517H125.977C126.117 70.1392 126.368 69.8326 126.733 69.5973C127.098 69.362 127.509 69.2443 127.966 69.2443C128.052 69.2443 128.16 69.246 128.289 69.2493C128.418 69.2526 128.516 69.2576 128.582 69.2642V70.4574C128.543 70.4474 128.452 70.4325 128.309 70.4126C128.17 70.3894 128.022 70.3778 127.867 70.3778C127.495 70.3778 127.164 70.4557 126.872 70.6115C126.584 70.764 126.355 70.9761 126.186 71.2479C126.02 71.5163 125.938 71.8229 125.938 72.1676V77H124.764ZM132.624 77.1591C131.988 77.1591 131.426 76.9983 130.939 76.6768C130.452 76.352 130.071 75.8946 129.796 75.3047C129.52 74.7114 129.383 74.0104 129.383 73.2017C129.383 72.3996 129.52 71.7036 129.796 71.1136C130.071 70.5237 130.453 70.0679 130.944 69.7464C131.435 69.425 132.001 69.2642 132.644 69.2642C133.141 69.2642 133.534 69.3471 133.823 69.5128C134.114 69.6752 134.336 69.8608 134.489 70.0696C134.645 70.2751 134.765 70.4441 134.852 70.5767H134.951V66.8182H136.124V77H134.991V75.8267H134.852C134.765 75.9659 134.643 76.1416 134.484 76.3537C134.325 76.5625 134.098 76.7498 133.803 76.9155C133.508 77.0779 133.115 77.1591 132.624 77.1591ZM132.783 76.1051C133.254 76.1051 133.652 75.9825 133.977 75.7372C134.301 75.4886 134.548 75.1456 134.717 74.7081C134.886 74.2673 134.971 73.7585 134.971 73.1818C134.971 72.6117 134.888 72.1129 134.722 71.6854C134.557 71.2545 134.311 70.9197 133.987 70.6811C133.662 70.4392 133.261 70.3182 132.783 70.3182C132.286 70.3182 131.872 70.4458 131.541 70.701C131.212 70.9529 130.966 71.2959 130.8 71.7301C130.637 72.161 130.556 72.6449 130.556 73.1818C130.556 73.7254 130.639 74.2192 130.805 74.6634C130.974 75.1042 131.222 75.4555 131.551 75.7173C131.882 75.9759 132.293 76.1051 132.783 76.1051ZM143.845 71.0739L142.791 71.3722C142.725 71.1965 142.627 71.0258 142.498 70.8601C142.372 70.6911 142.2 70.5518 141.981 70.4425C141.762 70.3331 141.482 70.2784 141.141 70.2784C140.673 70.2784 140.284 70.3861 139.972 70.6016C139.664 70.8137 139.51 71.0838 139.51 71.4119C139.51 71.7036 139.616 71.9339 139.828 72.103C140.04 72.272 140.372 72.4129 140.823 72.5256L141.956 72.804C142.639 72.9697 143.148 73.2232 143.482 73.5646C143.817 73.9027 143.984 74.3385 143.984 74.8722C143.984 75.3097 143.859 75.7008 143.607 76.0455C143.358 76.3902 143.01 76.6619 142.563 76.8608C142.115 77.0597 141.595 77.1591 141.002 77.1591C140.223 77.1591 139.578 76.9901 139.068 76.652C138.557 76.3139 138.234 75.8201 138.098 75.1705L139.212 74.892C139.318 75.303 139.518 75.6113 139.813 75.8168C140.112 76.0223 140.501 76.125 140.982 76.125C141.528 76.125 141.963 76.009 142.284 75.777C142.609 75.5417 142.771 75.2599 142.771 74.9318C142.771 74.6667 142.679 74.4446 142.493 74.2656C142.307 74.0833 142.022 73.9474 141.638 73.858L140.365 73.5597C139.666 73.3939 139.152 73.1371 138.824 72.7891C138.499 72.4377 138.337 71.9986 138.337 71.4716C138.337 71.0407 138.458 70.6596 138.7 70.3281C138.945 69.9967 139.278 69.7365 139.699 69.5476C140.123 69.3587 140.604 69.2642 141.141 69.2642C141.896 69.2642 142.49 69.4299 142.921 69.7614C143.355 70.0928 143.663 70.5303 143.845 71.0739Z" fill="white"/>
</svg>
