<svg width="177" height="28" viewBox="0 0 177 28" fill="none" xmlns="http://www.w3.org/2000/svg">
<path d="M12.0001 27.476C8.16947 27.476 5.24547 26.4107 3.22813 24.28C1.23347 22.1493 0.236133 19.1233 0.236133 15.202C0.236133 13.2527 0.542133 11.5187 1.15413 10C1.76613 8.45867 2.6048 7.16667 3.67013 6.124C4.73547 5.05867 6.0048 4.254 7.47813 3.71C8.95147 3.166 10.5495 2.894 12.2721 2.894C13.2695 2.894 14.1761 2.97333 14.9921 3.132C15.8081 3.268 16.5221 3.438 17.1341 3.642C17.7461 3.82333 18.2561 4.016 18.6641 4.22C19.0721 4.424 19.3668 4.58267 19.5481 4.696L18.0181 8.98C17.2928 8.59467 16.4428 8.266 15.4681 7.994C14.5161 7.722 13.4281 7.586 12.2041 7.586C11.3881 7.586 10.5835 7.722 9.79013 7.994C9.01947 8.266 8.32813 8.708 7.71613 9.32C7.1268 9.90933 6.6508 10.68 6.28813 11.632C5.92547 12.584 5.74413 13.74 5.74413 15.1C5.74413 16.188 5.85747 17.208 6.08413 18.16C6.33347 19.0893 6.7188 19.894 7.24013 20.574C7.78413 21.254 8.4868 21.798 9.34813 22.206C10.2095 22.5913 11.2521 22.784 12.4761 22.784C13.2468 22.784 13.9381 22.7387 14.5501 22.648C15.1621 22.5573 15.7061 22.4553 16.1821 22.342C16.6581 22.206 17.0775 22.0587 17.4401 21.9C17.8028 21.7413 18.1315 21.594 18.4261 21.458L19.8881 25.708C19.1401 26.1613 18.0861 26.5693 16.7261 26.932C15.3661 27.2947 13.7908 27.476 12.0001 27.476ZM30.129 23.464C30.6277 23.464 31.1037 23.4527 31.557 23.43C32.0104 23.4073 32.373 23.3733 32.645 23.328V19.486C32.441 19.4407 32.135 19.3953 31.727 19.35C31.319 19.3047 30.945 19.282 30.605 19.282C30.129 19.282 29.6757 19.316 29.245 19.384C28.837 19.4293 28.4744 19.5313 28.157 19.69C27.8397 19.8487 27.5904 20.064 27.409 20.336C27.2277 20.608 27.137 20.948 27.137 21.356C27.137 22.1493 27.3977 22.7047 27.919 23.022C28.463 23.3167 29.1997 23.464 30.129 23.464ZM29.721 8.64C31.217 8.64 32.4637 8.81 33.461 9.15C34.4584 9.49 35.2517 9.97733 35.841 10.612C36.453 11.2467 36.8837 12.0173 37.133 12.924C37.3824 13.8307 37.507 14.8393 37.507 15.95V26.49C36.7817 26.6487 35.773 26.83 34.481 27.034C33.189 27.2607 31.625 27.374 29.789 27.374C28.633 27.374 27.579 27.272 26.627 27.068C25.6977 26.864 24.893 26.5353 24.213 26.082C23.533 25.606 23.0117 24.994 22.649 24.246C22.2864 23.498 22.105 22.58 22.105 21.492C22.105 20.4493 22.309 19.5653 22.717 18.84C23.1477 18.1147 23.7144 17.5367 24.417 17.106C25.1197 16.6753 25.9244 16.3693 26.831 16.188C27.7377 15.984 28.6784 15.882 29.653 15.882C30.3104 15.882 30.8884 15.916 31.387 15.984C31.9084 16.0293 32.3277 16.0973 32.645 16.188V15.712C32.645 14.8507 32.3844 14.1593 31.863 13.638C31.3417 13.1167 30.435 12.856 29.143 12.856C28.2817 12.856 27.4317 12.924 26.593 13.06C25.7544 13.1733 25.029 13.3433 24.417 13.57L23.771 9.49C24.0657 9.39933 24.4284 9.30867 24.859 9.218C25.3124 9.10467 25.7997 9.014 26.321 8.946C26.8424 8.85533 27.3864 8.78733 27.953 8.742C28.5424 8.674 29.1317 8.64 29.721 8.64ZM52.866 13.604C52.4127 13.4907 51.88 13.3773 51.268 13.264C50.656 13.128 49.9987 13.06 49.296 13.06C48.9787 13.06 48.5933 13.094 48.14 13.162C47.7093 13.2073 47.3807 13.264 47.154 13.332V27H42.088V10.068C42.9947 9.75067 44.06 9.456 45.284 9.184C46.5307 8.88933 47.9133 8.742 49.432 8.742C49.704 8.742 50.0327 8.76467 50.418 8.81C50.8033 8.83267 51.1887 8.878 51.574 8.946C51.9593 8.99133 52.3447 9.05933 52.73 9.15C53.1153 9.218 53.444 9.30867 53.716 9.422L52.866 13.604ZM60.4177 17.922C60.4177 19.486 60.7691 20.744 61.4717 21.696C62.1744 22.648 63.2171 23.124 64.5997 23.124C65.0531 23.124 65.4724 23.1127 65.8577 23.09C66.2431 23.0447 66.5604 22.9993 66.8097 22.954V13.74C66.4924 13.536 66.0731 13.366 65.5517 13.23C65.0531 13.094 64.5431 13.026 64.0217 13.026C61.6191 13.026 60.4177 14.658 60.4177 17.922ZM71.8757 26.422C71.4224 26.558 70.9011 26.694 70.3117 26.83C69.7224 26.9433 69.0991 27.0453 68.4417 27.136C67.8071 27.2267 67.1497 27.2947 66.4697 27.34C65.8124 27.408 65.1777 27.442 64.5657 27.442C63.0924 27.442 61.7777 27.2267 60.6217 26.796C59.4657 26.3653 58.4911 25.7533 57.6977 24.96C56.9044 24.144 56.2924 23.1693 55.8617 22.036C55.4537 20.88 55.2497 19.588 55.2497 18.16C55.2497 16.7093 55.4311 15.406 55.7937 14.25C56.1564 13.0713 56.6777 12.074 57.3577 11.258C58.0377 10.442 58.8651 9.81867 59.8397 9.388C60.8371 8.95733 61.9704 8.742 63.2397 8.742C63.9424 8.742 64.5657 8.81 65.1097 8.946C65.6764 9.082 66.2431 9.27467 66.8097 9.524V1.432L71.8757 0.615999V26.422ZM81.7533 23.362C82.6826 23.362 83.3399 23.2713 83.7253 23.09C84.1106 22.9087 84.3033 22.5573 84.3033 22.036C84.3033 21.628 84.0539 21.2767 83.5553 20.982C83.0566 20.6647 82.2973 20.3133 81.2773 19.928C80.4839 19.6333 79.7586 19.3273 79.1013 19.01C78.4666 18.6927 77.9226 18.3187 77.4693 17.888C77.0159 17.4347 76.6646 16.902 76.4153 16.29C76.1659 15.678 76.0413 14.9413 76.0413 14.08C76.0413 12.4027 76.6646 11.0767 77.9113 10.102C79.1579 9.12733 80.8693 8.64 83.0453 8.64C84.1333 8.64 85.1759 8.742 86.1733 8.946C87.1706 9.12733 87.9639 9.33133 88.5533 9.558L87.6693 13.502C87.0799 13.298 86.4339 13.1167 85.7313 12.958C85.0513 12.7993 84.2806 12.72 83.4193 12.72C81.8326 12.72 81.0393 13.162 81.0393 14.046C81.0393 14.25 81.0733 14.4313 81.1413 14.59C81.2093 14.7487 81.3453 14.9073 81.5493 15.066C81.7533 15.202 82.0253 15.3607 82.3653 15.542C82.7279 15.7007 83.1813 15.882 83.7253 16.086C84.8359 16.494 85.7539 16.902 86.4793 17.31C87.2046 17.6953 87.7713 18.126 88.1793 18.602C88.6099 19.0553 88.9046 19.5653 89.0633 20.132C89.2446 20.6987 89.3353 21.356 89.3353 22.104C89.3353 23.872 88.6666 25.2093 87.3293 26.116C86.0146 27.0227 84.1446 27.476 81.7193 27.476C80.1326 27.476 78.8066 27.34 77.7413 27.068C76.6986 26.796 75.9733 26.5693 75.5653 26.388L76.4153 22.274C77.2766 22.614 78.1606 22.886 79.0673 23.09C79.9739 23.2713 80.8693 23.362 81.7533 23.362ZM109.271 5.954C109.543 6.88333 109.838 7.93733 110.155 9.116C110.495 10.272 110.847 11.4733 111.209 12.72C111.595 13.9667 111.98 15.2133 112.365 16.46C112.751 17.7067 113.125 18.8627 113.487 19.928C113.782 18.772 114.077 17.514 114.371 16.154C114.689 14.794 114.983 13.3887 115.255 11.938C115.527 10.4873 115.788 9.048 116.037 7.62C116.309 6.16933 116.559 4.77533 116.785 3.438H122.293C121.5 7.382 120.582 11.3827 119.539 15.44C118.519 19.4973 117.409 23.3507 116.207 27H111.345C110.552 24.824 109.781 22.546 109.033 20.166C108.285 17.7633 107.549 15.3607 106.823 12.958C106.098 15.3607 105.373 17.7633 104.647 20.166C103.922 22.546 103.163 24.824 102.369 27H97.5072C96.3059 23.3507 95.1839 19.4973 94.1412 15.44C93.1212 11.3827 92.2145 7.382 91.4212 3.438H97.1672C97.3939 4.77533 97.6432 6.16933 97.9152 7.62C98.1872 9.048 98.4705 10.4873 98.7652 11.938C99.0599 13.3887 99.3545 14.794 99.6492 16.154C99.9665 17.514 100.284 18.772 100.601 19.928C101.009 18.8173 101.406 17.6387 101.791 16.392C102.177 15.1453 102.551 13.8987 102.913 12.652C103.276 11.4053 103.605 10.204 103.899 9.048C104.217 7.892 104.5 6.86067 104.749 5.954H109.271ZM131.233 23.464C131.731 23.464 132.207 23.4527 132.661 23.43C133.114 23.4073 133.477 23.3733 133.749 23.328V19.486C133.545 19.4407 133.239 19.3953 132.831 19.35C132.423 19.3047 132.049 19.282 131.709 19.282C131.233 19.282 130.779 19.316 130.349 19.384C129.941 19.4293 129.578 19.5313 129.261 19.69C128.943 19.8487 128.694 20.064 128.513 20.336C128.331 20.608 128.241 20.948 128.241 21.356C128.241 22.1493 128.501 22.7047 129.023 23.022C129.567 23.3167 130.303 23.464 131.233 23.464ZM130.825 8.64C132.321 8.64 133.567 8.81 134.565 9.15C135.562 9.49 136.355 9.97733 136.945 10.612C137.557 11.2467 137.987 12.0173 138.237 12.924C138.486 13.8307 138.611 14.8393 138.611 15.95V26.49C137.885 26.6487 136.877 26.83 135.585 27.034C134.293 27.2607 132.729 27.374 130.893 27.374C129.737 27.374 128.683 27.272 127.731 27.068C126.801 26.864 125.997 26.5353 125.317 26.082C124.637 25.606 124.115 24.994 123.753 24.246C123.39 23.498 123.209 22.58 123.209 21.492C123.209 20.4493 123.413 19.5653 123.821 18.84C124.251 18.1147 124.818 17.5367 125.521 17.106C126.223 16.6753 127.028 16.3693 127.935 16.188C128.841 15.984 129.782 15.882 130.757 15.882C131.414 15.882 131.992 15.916 132.491 15.984C133.012 16.0293 133.431 16.0973 133.749 16.188V15.712C133.749 14.8507 133.488 14.1593 132.967 13.638C132.445 13.1167 131.539 12.856 130.247 12.856C129.385 12.856 128.535 12.924 127.697 13.06C126.858 13.1733 126.133 13.3433 125.521 13.57L124.875 9.49C125.169 9.39933 125.532 9.30867 125.963 9.218C126.416 9.10467 126.903 9.014 127.425 8.946C127.946 8.85533 128.49 8.78733 129.057 8.742C129.646 8.674 130.235 8.64 130.825 8.64ZM147.622 27C146.466 24.7333 145.287 22.0813 144.086 19.044C142.907 16.0067 141.785 12.6973 140.72 9.116H146.092C146.319 10 146.579 10.9633 146.874 12.006C147.191 13.026 147.509 14.0687 147.826 15.134C148.166 16.1767 148.495 17.1967 148.812 18.194C149.152 19.1913 149.481 20.098 149.798 20.914C150.093 20.098 150.41 19.1913 150.75 18.194C151.09 17.1967 151.419 16.1767 151.736 15.134C152.076 14.0687 152.393 13.026 152.688 12.006C153.005 10.9633 153.277 10 153.504 9.116H158.74C157.675 12.6973 156.541 16.0067 155.34 19.044C154.161 22.0813 152.994 24.7333 151.838 27H147.622ZM160.138 18.194C160.138 16.6073 160.376 15.2247 160.852 14.046C161.351 12.8447 161.997 11.8473 162.79 11.054C163.584 10.2607 164.49 9.66 165.51 9.252C166.553 8.844 167.618 8.64 168.706 8.64C171.245 8.64 173.251 9.422 174.724 10.986C176.198 12.5273 176.934 14.8053 176.934 17.82C176.934 18.1147 176.923 18.4433 176.9 18.806C176.878 19.146 176.855 19.452 176.832 19.724H165.34C165.454 20.7667 165.941 21.594 166.802 22.206C167.664 22.818 168.82 23.124 170.27 23.124C171.2 23.124 172.106 23.0447 172.99 22.886C173.897 22.7047 174.634 22.4893 175.2 22.24L175.88 26.354C175.608 26.49 175.246 26.626 174.792 26.762C174.339 26.898 173.829 27.0113 173.262 27.102C172.718 27.2153 172.129 27.306 171.494 27.374C170.86 27.442 170.225 27.476 169.59 27.476C167.981 27.476 166.576 27.238 165.374 26.762C164.196 26.286 163.21 25.64 162.416 24.824C161.646 23.9853 161.068 22.9993 160.682 21.866C160.32 20.7327 160.138 19.5087 160.138 18.194ZM172.038 16.256C172.016 15.8253 171.936 15.406 171.8 14.998C171.687 14.59 171.494 14.2273 171.222 13.91C170.973 13.5927 170.644 13.332 170.236 13.128C169.851 12.924 169.364 12.822 168.774 12.822C168.208 12.822 167.72 12.924 167.312 13.128C166.904 13.3093 166.564 13.5587 166.292 13.876C166.02 14.1933 165.805 14.5673 165.646 14.998C165.51 15.406 165.408 15.8253 165.34 16.256H172.038Z" fill="white"/>
</svg>
